#tb 0: 1/25
#media_type 0: video
#codec_id 0: rawvideo
#dimensions 0: 352x288
#sar 0: 0/1
0,          0,          0,        1,   114048, 0x7f0c7c05
0,          1,          1,        1,   114048, 0xc29c2f4c
0,          2,          2,        1,   114048, 0xd57972d3
0,          3,          3,        1,   114048, 0x66cdd459
0,          4,          4,        1,   114048, 0xa5fe7feb
0,          5,          5,        1,   114048, 0xe931ca2a
0,          6,          6,        1,   114048, 0x321b508d
0,          7,          7,        1,   114048, 0x8e8fd497
0,          8,          8,        1,   114048, 0xb7955ad9
0,          9,          9,        1,   114048, 0x59d8c5a7
0,         10,         10,        1,   114048, 0x0a8f4a57
0,         11,         11,        1,   114048, 0x9c55cf03
0,         12,         12,        1,   114048, 0x3c3e76a2
0,         13,         13,        1,   114048, 0xb662efce
0,         14,         14,        1,   114048, 0x15b35521
0,         15,         15,        1,   114048, 0xe250b7f7
0,         16,         16,        1,   114048, 0x81f32545
0,         17,         17,        1,   114048, 0x27748879
0,         18,         18,        1,   114048, 0xf7741057
0,         19,         19,        1,   114048, 0x00a38eb9
0,         20,         20,        1,   114048, 0xdf741c1b
0,         21,         21,        1,   114048, 0x9be28f42
0,         22,         22,        1,   114048, 0x7287ff20
0,         23,         23,        1,   114048, 0xaa259a22
0,         24,         24,        1,   114048, 0x3bb73a28
0,         25,         25,        1,   114048, 0x4814a559
0,         26,         26,        1,   114048, 0x9d1423a0
0,         27,         27,        1,   114048, 0x8c01d35d
0,         28,         28,        1,   114048, 0x424f6e83
0,         29,         29,        1,   114048, 0x2bec0ca3
0,         30,         30,        1,   114048, 0x2bff6b72
0,         31,         31,        1,   114048, 0xd59b13a9
0,         32,         32,        1,   114048, 0x99679099
0,         33,         33,        1,   114048, 0x24bc2e4d
0,         34,         34,        1,   114048, 0x6778d053
0,         35,         35,        1,   114048, 0x7e7c2121
0,         36,         36,        1,   114048, 0x29ba98be
0,         37,         37,        1,   114048, 0xd5f00edc
0,         38,         38,        1,   114048, 0x2ffc7e1e
0,         39,         39,        1,   114048, 0x505a007e
0,         40,         40,        1,   114048, 0xdf4a8e59
0,         41,         41,        1,   114048, 0x6d251700
0,         42,         42,        1,   114048, 0x69889c0e
0,         43,         43,        1,   114048, 0x00c814dd
0,         44,         44,        1,   114048, 0x3bc99551
0,         45,         45,        1,   114048, 0x8e8a1552
0,         46,         46,        1,   114048, 0x35bd93d1
0,         47,         47,        1,   114048, 0x6c160b33
0,         48,         48,        1,   114048, 0x75cb8824
0,         49,         49,        1,   114048, 0x7a1a05a7
